<svg xmlns="http://www.w3.org/2000/svg" xmlns:xlink="http://www.w3.org/1999/xlink" zoomAndPan="magnify" preserveAspectRatio="xMidYMid meet" version="1.0" viewBox="57.18 143.64 228.64 87.75"><defs><g/><clipPath id="df95f98d95"><path d="M 57.179688 143.636719 L 133.496094 143.636719 L 133.496094 231.386719 L 57.179688 231.386719 Z M 57.179688 143.636719 " clip-rule="nonzero"/></clipPath><clipPath id="c52ed93adf"><path d="M 86 215 L 96 215 L 96 231.386719 L 86 231.386719 Z M 86 215 " clip-rule="nonzero"/></clipPath></defs><g fill="#ffffff" fill-opacity="1"><g transform="translate(149.029507, 196.394143)"><g><path d="M 17.171875 0 L 13.546875 -6.875 L 8.65625 -6.875 L 8.65625 0 L 2.4375 0 L 2.4375 -24.4375 L 13.375 -24.4375 C 16.601562 -24.4375 19.101562 -23.695312 20.875 -22.21875 C 22.644531 -20.738281 23.53125 -18.640625 23.53125 -15.921875 C 23.53125 -12.148438 22.050781 -9.53125 19.09375 -8.0625 L 24.21875 0 Z M 8.65625 -11.765625 L 13.375 -11.765625 C 14.71875 -11.765625 15.757812 -12.097656 16.5 -12.765625 C 17.25 -13.441406 17.625 -14.421875 17.625 -15.703125 C 17.625 -16.960938 17.25 -17.914062 16.5 -18.5625 C 15.757812 -19.21875 14.71875 -19.546875 13.375 -19.546875 L 8.65625 -19.546875 Z M 8.65625 -11.765625 "/></g></g></g><g fill="#ffffff" fill-opacity="1"><g transform="translate(176.043686, 196.394143)"><g><path d="M 21.578125 -19.546875 L 8.65625 -19.546875 L 8.65625 -14.703125 L 20.3125 -14.703125 L 20.3125 -9.8125 L 8.65625 -9.8125 L 8.65625 -4.890625 L 21.953125 -4.890625 L 21.953125 0 L 2.4375 0 L 2.4375 -24.4375 L 21.578125 -24.4375 Z M 21.578125 -19.546875 "/></g></g></g><g fill="#ffffff" fill-opacity="1"><g transform="translate(201.312761, 196.394143)"><g><path d="M 25 0 L 19.515625 0 L 8.265625 -15.046875 L 8.265625 0 L 2.4375 0 L 2.4375 -24.4375 L 7.921875 -24.4375 L 19.203125 -9.359375 L 19.203125 -24.4375 L 25 -24.4375 Z M 25 0 "/></g></g></g><g fill="#ffffff" fill-opacity="1"><g transform="translate(230.490865, 196.394143)"><g><path d="M 14.03125 -24.640625 C 17.820312 -24.640625 20.972656 -23.457031 23.484375 -21.09375 C 26.003906 -18.738281 27.265625 -15.789062 27.265625 -12.25 C 27.265625 -8.6875 26 -5.707031 23.46875 -3.3125 C 20.945312 -0.914062 17.800781 0.28125 14.03125 0.28125 C 10.257812 0.28125 7.117188 -0.910156 4.609375 -3.296875 C 2.097656 -5.679688 0.84375 -8.664062 0.84375 -12.25 C 0.84375 -15.8125 2.097656 -18.765625 4.609375 -21.109375 C 7.117188 -23.460938 10.257812 -24.640625 14.03125 -24.640625 Z M 14.109375 -19.4375 C 12.191406 -19.4375 10.554688 -18.742188 9.203125 -17.359375 C 7.859375 -15.972656 7.1875 -14.253906 7.1875 -12.203125 C 7.1875 -10.160156 7.867188 -8.4375 9.234375 -7.03125 C 10.597656 -5.625 12.21875 -4.921875 14.09375 -4.921875 C 15.976562 -4.921875 17.578125 -5.625 18.890625 -7.03125 C 20.210938 -8.4375 20.875 -10.160156 20.875 -12.203125 C 20.875 -14.253906 20.210938 -15.972656 18.890625 -17.359375 C 17.578125 -18.742188 15.984375 -19.4375 14.109375 -19.4375 Z M 14.109375 -19.4375 "/></g></g></g><g fill="#ffffff" fill-opacity="1"><g transform="translate(260.332106, 196.394143)"><g><path d="M 15.875 0 L 9.453125 0 L -0.03125 -24.4375 L 6.59375 -24.4375 L 12.84375 -6.453125 L 19.09375 -24.4375 L 25.484375 -24.4375 Z M 15.875 0 "/></g></g></g><g fill="#00aeef" fill-opacity="1"><g transform="translate(149.029507, 219.734902)"><g><path d="M 1.4375 -10.6875 L 3.421875 -10.6875 L 3.421875 0 L 1.4375 0 Z M 1.4375 -10.6875 "/></g></g></g><g fill="#00aeef" fill-opacity="1"><g transform="translate(156.191, 219.734902)"><g><path d="M 10.9375 -10.6875 L 10.9375 0 L 9.296875 0 L 3.40625 -7.234375 L 3.40625 0 L 1.4375 0 L 1.4375 -10.6875 L 3.0625 -10.6875 L 8.96875 -3.453125 L 8.96875 -10.6875 Z M 10.9375 -10.6875 "/></g></g></g><g fill="#00aeef" fill-opacity="1"><g transform="translate(170.849934, 219.734902)"><g><path d="M 3.609375 -9 L 0.0625 -9 L 0.0625 -10.6875 L 9.125 -10.6875 L 9.125 -9 L 5.59375 -9 L 5.59375 0 L 3.609375 0 Z M 3.609375 -9 "/></g></g></g><g fill="#00aeef" fill-opacity="1"><g transform="translate(182.332759, 219.734902)"><g><path d="M 9.453125 -1.65625 L 9.453125 0 L 1.4375 0 L 1.4375 -10.6875 L 9.234375 -10.6875 L 9.234375 -9.015625 L 3.421875 -9.015625 L 3.421875 -6.25 L 8.578125 -6.25 L 8.578125 -4.609375 L 3.421875 -4.609375 L 3.421875 -1.65625 Z M 6.140625 -13.640625 L 8.375 -13.640625 L 5.71875 -11.5625 L 4.078125 -11.5625 Z M 6.140625 -13.640625 "/></g></g></g><g fill="#00aeef" fill-opacity="1"><g transform="translate(194.853924, 219.734902)"><g><path d="M 8.421875 0 L 6.25 -3.125 C 6.15625 -3.113281 6.015625 -3.109375 5.828125 -3.109375 L 3.421875 -3.109375 L 3.421875 0 L 1.4375 0 L 1.4375 -10.6875 L 5.828125 -10.6875 C 6.753906 -10.6875 7.5625 -10.53125 8.25 -10.21875 C 8.9375 -9.914062 9.460938 -9.476562 9.828125 -8.90625 C 10.191406 -8.34375 10.375 -7.671875 10.375 -6.890625 C 10.375 -6.078125 10.175781 -5.378906 9.78125 -4.796875 C 9.394531 -4.222656 8.835938 -3.796875 8.109375 -3.515625 L 10.5625 0 Z M 8.375 -6.890625 C 8.375 -7.566406 8.148438 -8.085938 7.703125 -8.453125 C 7.253906 -8.816406 6.597656 -9 5.734375 -9 L 3.421875 -9 L 3.421875 -4.75 L 5.734375 -4.75 C 6.597656 -4.75 7.253906 -4.929688 7.703125 -5.296875 C 8.148438 -5.671875 8.375 -6.203125 8.375 -6.890625 Z M 8.375 -6.890625 "/></g></g></g><g fill="#00aeef" fill-opacity="1"><g transform="translate(208.306542, 219.734902)"><g><path d="M 1.4375 -10.6875 L 3.421875 -10.6875 L 3.421875 0 L 1.4375 0 Z M 1.4375 -10.6875 "/></g></g></g><g fill="#00aeef" fill-opacity="1"><g transform="translate(215.468034, 219.734902)"><g><path d="M 9.453125 -1.65625 L 9.453125 0 L 1.4375 0 L 1.4375 -10.6875 L 9.234375 -10.6875 L 9.234375 -9.015625 L 3.421875 -9.015625 L 3.421875 -6.25 L 8.578125 -6.25 L 8.578125 -4.609375 L 3.421875 -4.609375 L 3.421875 -1.65625 Z M 9.453125 -1.65625 "/></g></g></g><g fill="#00aeef" fill-opacity="1"><g transform="translate(227.989197, 219.734902)"><g><path d="M 6.03125 0.15625 C 4.550781 0.15625 3.398438 -0.253906 2.578125 -1.078125 C 1.753906 -1.910156 1.34375 -3.101562 1.34375 -4.65625 L 1.34375 -10.6875 L 3.328125 -10.6875 L 3.328125 -4.734375 C 3.328125 -2.640625 4.234375 -1.59375 6.046875 -1.59375 C 7.847656 -1.59375 8.75 -2.640625 8.75 -4.734375 L 8.75 -10.6875 L 10.703125 -10.6875 L 10.703125 -4.65625 C 10.703125 -3.101562 10.289062 -1.910156 9.46875 -1.078125 C 8.65625 -0.253906 7.507812 0.15625 6.03125 0.15625 Z M 6.03125 0.15625 "/></g></g></g><g fill="#00aeef" fill-opacity="1"><g transform="translate(242.32746, 219.734902)"><g><path d="M 8.421875 0 L 6.25 -3.125 C 6.15625 -3.113281 6.015625 -3.109375 5.828125 -3.109375 L 3.421875 -3.109375 L 3.421875 0 L 1.4375 0 L 1.4375 -10.6875 L 5.828125 -10.6875 C 6.753906 -10.6875 7.5625 -10.53125 8.25 -10.21875 C 8.9375 -9.914062 9.460938 -9.476562 9.828125 -8.90625 C 10.191406 -8.34375 10.375 -7.671875 10.375 -6.890625 C 10.375 -6.078125 10.175781 -5.378906 9.78125 -4.796875 C 9.394531 -4.222656 8.835938 -3.796875 8.109375 -3.515625 L 10.5625 0 Z M 8.375 -6.890625 C 8.375 -7.566406 8.148438 -8.085938 7.703125 -8.453125 C 7.253906 -8.816406 6.597656 -9 5.734375 -9 L 3.421875 -9 L 3.421875 -4.75 L 5.734375 -4.75 C 6.597656 -4.75 7.253906 -4.929688 7.703125 -5.296875 C 8.148438 -5.671875 8.375 -6.203125 8.375 -6.890625 Z M 8.375 -6.890625 "/></g></g></g><g clip-path="url(#df95f98d95)"><path fill="#00aeef" d="M 133.332031 143.636719 L 110.339844 143.636719 L 76.53125 182.785156 L 76.53125 143.636719 L 57.175781 143.636719 L 57.175781 231.375 L 76.53125 231.375 L 76.53125 205.417969 L 89.320312 193.226562 L 91.488281 194.421875 L 111.316406 205.417969 L 111.316406 231.375 L 127.332031 231.375 L 127.332031 195.953125 L 100.855469 181.292969 Z M 133.332031 143.636719 " fill-opacity="1" fill-rule="nonzero"/></g><g clip-path="url(#c52ed93adf)"><path fill="#00aeef" d="M 86.042969 215.652344 L 95.257812 215.652344 L 95.257812 231.375 L 86.042969 231.375 Z M 86.042969 215.652344 " fill-opacity="1" fill-rule="nonzero"/></g></svg>